<svg width="92" height="46" viewBox="0 0 92 46" fill="none" xmlns="http://www.w3.org/2000/svg">
<g clip-path="url(#clip0_29_2985)">
<path d="M6.49341 17.1068H1.88007V0.541992H6.49341V17.1068ZM13.1078 10.6448H6.16764V6.76443H13.1078V10.6448ZM12.7821 0.557749H17.3923V17.1225H12.7821V0.557749Z" fill="white"/>
<path d="M35.5168 17.4378C33.1093 17.4378 31.2303 16.7674 29.8797 15.4267C28.5291 14.0859 27.8538 12.1852 27.8538 9.72434V0.541992H32.464V9.58249C32.464 11.001 32.7401 12.0181 33.2924 12.6338C33.5824 12.9458 33.9357 13.19 34.3278 13.3495C34.72 13.509 35.1415 13.5799 35.5633 13.5574C35.9833 13.5802 36.4032 13.5094 36.7933 13.3498C37.1835 13.1903 37.5346 12.9459 37.8219 12.6338C38.3659 12.0202 38.6379 11.0031 38.6379 9.58249V0.541992H43.1799V9.72434C43.1799 12.1831 42.5046 14.0838 41.154 15.4267C39.8034 16.7695 37.9243 17.4399 35.5168 17.4378Z" fill="white"/>
<path d="M58.2267 13.4849H63.4202V17.1068H53.663V0.541992H63.4202V4.16071H58.2267V13.4849ZM57.9165 6.95355H63.4202V10.4557H57.8979L57.9165 6.95355Z" fill="white"/>
<path d="M7.4521 37.8735C6.46272 37.8949 5.47713 37.7424 4.53889 37.4227C3.80031 37.1789 3.13077 36.7571 2.58746 36.1933C2.13446 35.7162 1.84691 35.102 1.76841 34.4439V34.3525H5.71472L5.73644 34.4029C5.86088 34.6206 6.04384 34.7977 6.26385 34.9136C6.63246 35.1195 7.05076 35.2156 7.47071 35.1909C7.95153 35.2329 8.43074 35.0938 8.81717 34.8001C8.95698 34.6807 9.06861 34.5308 9.14378 34.3617C9.21896 34.1926 9.25578 34.0084 9.25151 33.8229V31.815H9.17085C9.00422 32.1902 8.75474 32.5213 8.44178 32.7827C8.10477 33.0656 7.71708 33.2797 7.30007 33.4131C6.82679 33.5661 6.33234 33.6406 5.83572 33.6338C5.00928 33.6593 4.19334 33.4403 3.48717 33.0033C2.82328 32.5591 2.31074 31.9172 2.01971 31.1656C1.66359 30.2251 1.49385 29.2224 1.52022 28.2151C1.49085 27.1501 1.66468 26.0893 2.03212 25.0913C2.31922 24.3094 2.83581 23.636 3.51198 23.1622C4.21945 22.7037 5.04667 22.473 5.88535 22.5002C6.37415 22.4941 6.85959 22.5829 7.31559 22.7618C7.73613 22.9281 8.11614 23.1852 8.42936 23.5152C8.75016 23.8556 8.99929 24.2589 9.16154 24.7004H9.25151V22.7461H13.3778V33.7283C13.3859 34.5054 13.1319 35.2619 12.658 35.8718C12.117 36.5401 11.4085 37.0476 10.6073 37.3407C9.59776 37.7179 8.52741 37.8986 7.4521 37.8735ZM7.48312 30.8283C7.82066 30.8348 8.15167 30.7334 8.42936 30.5383C8.7118 30.3231 8.92723 30.0298 9.04985 29.6935C9.20232 29.2665 9.27492 28.8143 9.26392 28.3601C9.27669 27.9033 9.20188 27.4483 9.04365 27.0205C8.92071 26.6843 8.70535 26.3911 8.42316 26.1757C8.14812 25.9874 7.82405 25.8869 7.49243 25.8869C7.16081 25.8869 6.83674 25.9874 6.56169 26.1757C6.28119 26.3901 6.06608 26.6808 5.9412 27.0141C5.7842 27.4412 5.70942 27.8949 5.72092 28.3507C5.71007 28.803 5.78377 29.2533 5.9381 29.6778C6.05932 30.0175 6.27484 30.3142 6.55859 30.532C6.8277 30.7286 7.1517 30.8324 7.48312 30.8283Z" fill="white"/>
<path d="M20.6778 34.2896C19.5929 34.3193 18.5169 34.0824 17.5413 33.5993C16.6847 33.1547 15.983 32.4539 15.5309 31.5913C15.0395 30.604 14.7995 29.5072 14.8328 28.4013V28.3824C14.8045 27.2865 15.0523 26.2015 15.5526 25.2302C16.0166 24.367 16.7229 23.6636 17.5816 23.2096C18.543 22.7194 19.6087 22.4779 20.684 22.5067C21.7585 22.4793 22.8234 22.7185 23.7865 23.2033C24.6461 23.6527 25.3538 24.3531 25.8186 25.2144C26.3227 26.1945 26.5705 27.2897 26.5384 28.395V28.4139C26.571 29.5245 26.3288 30.6257 25.8341 31.6165C25.3785 32.4771 24.6749 33.1755 23.8175 33.6182C22.839 34.0944 21.7622 34.3247 20.6778 34.2896ZM20.6778 31.1784C21.0017 31.1879 21.3177 31.0757 21.5651 30.8632C21.8384 30.6087 22.0353 30.2809 22.1329 29.9175C22.2765 29.4268 22.3435 28.9163 22.3314 28.4045V28.3855C22.342 27.8773 22.2718 27.3706 22.1236 26.8851C22.0176 26.5225 21.8171 26.1958 21.5434 25.9394C21.2988 25.728 20.9881 25.6119 20.667 25.6119C20.3458 25.6119 20.0352 25.728 19.7905 25.9394C19.5179 26.1956 19.3194 26.5226 19.2166 26.8851C19.0724 27.3714 19.0044 27.8778 19.0149 28.3855V28.4045C19.0035 28.916 19.0695 29.4263 19.2104 29.9175C19.3103 30.2806 19.508 30.6081 19.7812 30.8632C20.034 31.0793 20.3571 31.1918 20.6871 31.1784H20.6778Z" fill="white"/>
<path d="M28.2323 34.0439V19.2695H32.3648V34.0439H28.2323Z" fill="white"/>
<path d="M35.188 34.0438V25.7725H33.7174V22.74H35.188V22.2987C35.1652 21.6561 35.304 21.0182 35.5913 20.4453C35.8932 19.936 36.3658 19.5543 36.9222 19.3703C37.7335 19.1109 38.5822 18.9937 39.4321 19.0236C39.7827 19.0236 40.1333 19.0236 40.4901 19.074C40.7745 19.0979 41.0573 19.139 41.337 19.197V21.7187C41.2223 21.6954 41.1063 21.6796 40.9895 21.6714C40.8499 21.6714 40.7165 21.6714 40.58 21.6714C40.2121 21.642 39.8439 21.7242 39.5221 21.9079C39.4227 21.9783 39.3422 22.0729 39.288 22.183C39.2339 22.2931 39.2077 22.4153 39.2118 22.5383V22.7747H41.3494V25.8071H39.3328V34.0438H35.188Z" fill="white"/>
<path d="M47.7746 34.2896C46.6988 34.3194 45.6326 34.0768 44.6722 33.5835C43.8189 33.1269 43.1222 32.4179 42.6742 31.5503C42.1839 30.5703 41.9428 29.4812 41.973 28.3823C41.9422 27.2884 42.1834 26.2043 42.6742 25.2301C43.1241 24.3674 43.8192 23.6623 44.669 23.2064C45.5922 22.7604 46.5985 22.5201 47.6205 22.5016C48.6425 22.4832 49.6566 22.6869 50.5947 23.0993C51.3896 23.4641 52.06 24.0607 52.5207 24.8133C52.9813 25.5659 53.2116 26.4406 53.1822 27.3263V27.3894H49.4158V27.2854C49.3929 26.8326 49.2189 26.4012 48.9225 26.0623C48.783 25.9127 48.6137 25.7948 48.426 25.7166C48.2383 25.6383 48.0363 25.6014 47.8335 25.6084C47.5038 25.5974 47.1815 25.7096 46.9276 25.9236C46.6547 26.1778 46.4588 26.5059 46.363 26.8693C46.225 27.36 46.1601 27.8689 46.1706 28.3792C46.1596 28.8942 46.2223 29.4081 46.3568 29.9048C46.4472 30.2698 46.6427 30.5991 46.9183 30.8505C47.18 31.0681 47.5112 31.1803 47.8491 31.1657C48.0542 31.1756 48.2591 31.1404 48.4496 31.0626C48.6402 30.9848 48.8121 30.8663 48.9535 30.715C49.2439 30.3712 49.4122 29.9382 49.4313 29.4856V29.3816H53.1822V29.4446C53.1952 30.3132 52.9742 31.1689 52.5431 31.9191C52.0966 32.662 51.4508 33.2601 50.6816 33.6434C49.7774 34.0918 48.7805 34.3134 47.7746 34.2896Z" fill="white"/>
<path d="M54.9133 34.0439V19.2695H59.0458V34.0439H54.9133Z" fill="white"/>
<path d="M64.8846 34.2895C64.1604 34.3128 63.4435 34.1375 62.8091 33.782C62.236 33.4416 61.7816 32.9281 61.5091 32.3131C61.1962 31.5841 61.0448 30.7943 61.0655 29.9994V23.2852H65.1979V29.0789C65.1709 29.5586 65.3103 30.0326 65.5919 30.4186C65.7359 30.5872 65.9166 30.7194 66.1196 30.8048C66.3226 30.8901 66.5424 30.9263 66.7616 30.9103C66.9865 30.9137 67.2096 30.8686 67.4162 30.7779C67.6084 30.6913 67.7791 30.5621 67.9157 30.3997C68.0567 30.2297 68.1623 30.0324 68.2259 29.8197C68.2992 29.5832 68.3348 29.3363 68.3314 29.0884V23.2852H72.4639V34.0436H68.3314V31.9443H68.2507C68.0894 32.4177 67.8386 32.8546 67.5124 33.2304C67.2029 33.5806 66.8173 33.8526 66.3862 34.0247C65.9068 34.2091 65.3971 34.299 64.8846 34.2895Z" fill="white"/>
<path d="M74.3409 0C74.1702 14.6293 74.3409 25.454 74.4433 30.2201C74.4712 31.7962 74.6356 33.7348 75.8859 35.3897C77.9366 38.1006 79.885 39.0683 82.6244 39.0683C83.2232 39.0683 83.4186 37.4418 83.4031 36.3511C83.3845 35.1186 82.7082 34.1446 81.6875 33.4227C80.946 32.9058 80.8529 33.2557 78.7743 32.4424C77.3409 31.8845 76.6026 31.4148 76.2923 30.6362C76.2155 30.4489 76.1654 30.2515 76.1434 30.0499V0H74.3409Z" fill="white"/>
<path d="M80.1455 30.7873C81.4735 30.7873 82.5499 29.6935 82.5499 28.3443C82.5499 26.9951 81.4735 25.9014 80.1455 25.9014C78.8176 25.9014 77.7411 26.9951 77.7411 28.3443C77.7411 29.6935 78.8176 30.7873 80.1455 30.7873Z" fill="white"/>
<path d="M0.003097 41.7793C-0.254406 41.5335 18.1369 44.3011 45.9504 44.4083C63.048 44.4745 93.756 42.1009 85.6617 38.0503C89.1892 38.0503 91.9938 39.0685 91.9938 40.613C91.9938 44.7109 65.7471 45.8993 46.1768 45.9938C22.3407 46.1073 2.51608 44.1403 0.003097 41.7793Z" fill="#00B125"/>
</g>
<defs>
<clipPath id="clip0_29_2985">
<rect width="92" height="46" fill="white"/>
</clipPath>
</defs>
</svg>
