<svg width="24" height="24" viewBox="0 0 24 24" fill="none" xmlns="http://www.w3.org/2000/svg">
<path d="M14.5835 4.60865L14.2205 4H12.0239V9.48185L12.0164 14.8364C12.0202 14.8762 12.0239 14.9199 12.0239 14.9597C12.0239 16.3003 10.9986 17.3943 9.73374 17.3943C8.46891 17.3943 7.44358 16.3043 7.44358 14.9597C7.44358 13.6191 8.46891 12.5251 9.73374 12.5251C9.99568 12.5251 10.2501 12.5768 10.4859 12.6643V9.99105C10.2427 9.94729 9.99194 9.92342 9.73374 9.92342C7.1255 9.9274 5 12.187 5 14.9637C5 17.7404 7.1255 20 9.73748 20C12.3495 20 14.475 17.7404 14.475 14.9637V8.59473C15.4217 9.60119 16.6454 10.5838 18 10.8981V8.16509C16.5294 7.4729 15.0662 5.42815 14.5835 4.60865Z" fill="white"/>
</svg>
