<svg width="24" height="25" viewBox="0 0 24 25" fill="none" xmlns="http://www.w3.org/2000/svg">
<path d="M19.0621 21.4693C17.1077 23.4236 12.1028 21.5873 7.88327 17.3677C3.66372 13.1482 1.82739 8.14326 3.7817 6.18893L5.06847 4.90217C5.9568 4.01384 7.42054 4.03732 8.33784 4.95462L10.3309 6.9477C11.2482 7.865 11.2717 9.32874 10.3834 10.2171L10.107 10.4935C9.62737 10.9731 9.58045 11.7468 10.0261 12.2869C10.456 12.8078 10.9194 13.3266 11.4219 13.8291C11.9244 14.3316 12.4432 14.795 12.9641 15.2249C13.5042 15.6705 14.2779 15.6236 14.7575 15.144L15.0339 14.8676C15.9222 13.9793 17.386 14.0028 18.3033 14.9201L20.2964 16.9131C21.2137 17.8304 21.2371 19.2942 20.3488 20.1825L19.0621 21.4693Z" stroke="black" stroke-width="1.5"/>
<path d="M17.6265 10.2508C17.3825 9.65562 17.0189 9.09799 16.5356 8.61472C16.0796 8.15874 15.5575 7.80927 15 7.56631" stroke="black" stroke-width="1.5" stroke-linecap="round"/>
<path d="M15 4.1634C16.3346 4.64691 17.5868 5.42365 18.6568 6.49364C19.7537 7.59048 20.5424 8.87882 21.0229 10.2511" stroke="black" stroke-width="1.5" stroke-linecap="round"/>
</svg>
