<svg width="24" height="24" viewBox="0 0 24 24" fill="none" xmlns="http://www.w3.org/2000/svg">
<path fill-rule="evenodd" clip-rule="evenodd" d="M14.8085 8.87464L19.6485 9.29464C20.5285 9.36464 20.8785 10.4646 20.2085 11.0446L16.5385 14.2246L17.6385 18.9546C17.8385 19.8146 16.9085 20.4946 16.1485 20.0346L11.9985 17.5246L7.84855 20.0246C7.08855 20.4846 6.15855 19.8046 6.35855 18.9446L7.45855 14.2246L3.78855 11.0446C3.11855 10.4646 3.47855 9.36464 4.35855 9.29464L9.18855 8.88464L11.0785 4.42464C11.4185 3.61464 12.5785 3.61464 12.9185 4.42464L14.8085 8.87464ZM11.9985 6.35464V15.6546L15.7685 17.9346L14.7685 13.6546L18.0885 10.7746L13.7085 10.3946L11.9985 6.35464Z" fill="#FFFF00"/>
</svg>
